<svg xmlns="http://www.w3.org/2000/svg" version="1.1" xmlns:xlink="http://www.w3.org/1999/xlink" xmlns:svgjs="http://svgjs.com/svgjs" width="512" height="512" x="0" y="0" viewBox="0 0 512 512" style="enable-background:new 0 0 512 512" xml:space="preserve" class=""><g><path xmlns="http://www.w3.org/2000/svg" d="m317.023438 512c-17.84375 0-57.96875-3.167969-84.203126-29.398438-9.457031-9.457031-19.664062-20.363281-26.691406-31.84375-55.351562-5.078124-106.332031-29.957031-144.320312-70.617187-39.859375-42.65625-61.808594-98.820313-61.808594-158.140625 0-22.058594 17.945312-40 40-40h270.34375c25.285156 0 47.226562-17.132812 53.359375-41.660156l2.757813-11.035156c-26.839844-7.996094-46.460938-32.902344-46.460938-62.304688v-52c0-8.285156 6.714844-15 14.996094-15h30c20.082031 0 38.070312 9.15625 50 23.511719 11.933594-14.355469 29.917968-23.511719 50-23.511719h30c8.285156 0 15 6.714844 15 15v52c0 30.679688-21.363282 56.464844-50 63.253906v91.746094c0 47.550781-14.421875 93.175781-41.710938 131.933594-23.222656 32.984375-54.242187 59.003906-90.421875 76.003906 14.742188 31.359375 11.972657 66.359375 11.824219 68.085938-.621094 7.265624-6.378906 13.027343-13.640625 13.664062-.539063.046875-3.84375.3125-9.023437.3125zm0 0" fill="#d2fafa" data-original="#d2fafa"></path><path xmlns="http://www.w3.org/2000/svg" d="m494.996094 0h-30c-20.082032 0-38.066406 9.15625-50 23.511719-11.929688-14.355469-29.917969-23.511719-50-23.511719h-30c-8.28125 0-14.996094 6.714844-14.996094 15v52c0 29.402344 19.621094 54.308594 46.460938 62.304688l-2.757813 11.035156c-6.132813 24.527344-28.074219 41.660156-53.359375 41.660156h-270.34375c-22.054688 0-40 17.941406-40 40 0 12.355469.980469 24.800781 2.902344 37h-.011719c.6875 4.367188 1.5 8.699219 2.429687 13h12.449219l28.695313.003906c51.742187 0 100.226562 33.980469 120.644531 84.546875l34.398437 85.449219c.082032.203125.167969.40625.257813.605469 6.5625 14.441406 19.382813 28.324219 31.054687 39.996093 26.234376 26.230469 66.359376 29.398438 84.203126 29.398438 5.179687 0 8.484374-.265625 9.023437-.3125 7.261719-.636719 13.019531-6.398438 13.640625-13.664062.148438-1.726563 2.917969-36.726563-11.824219-68.085938 36.179688-17 67.199219-43.019531 90.425781-76.003906 27.285157-38.757813 41.710938-84.382813 41.710938-131.933594v-91.746094c28.632812-6.789062 49.996094-32.574218 49.996094-63.253906v-52c0-8.285156-6.714844-15-15-15zm0 0" fill="#0eb2ff" data-original="#0eb2ff" class=""></path><path xmlns="http://www.w3.org/2000/svg" d="m320 15v52c0 29.402344 19.621094 54.308594 46.460938 62.304688l-2.757813 11.035156c-6.132813 24.527344-28.074219 41.660156-53.359375 41.660156h-55.34375v316.492188c22.78125 11.597656 48.074219 13.460937 61.503906 13.503906h1.449219c4.640625-.027344 7.585937-.265625 8.09375-.308594 7.261719-.636719 13.019531-6.398438 13.640625-13.664062.148438-1.726563 2.917969-36.726563-11.824219-68.085938 36.179688-17 67.199219-43.019531 90.421875-76.003906 27.289063-38.757813 41.710938-84.382813 41.710938-131.933594v-91.746094c28.636718-6.789062 50-32.574218 50-63.253906v-52c0-8.285156-6.714844-15-15-15h-30c-20.082032 0-38.066406 9.15625-50 23.511719-11.929688-14.355469-29.917969-23.511719-50-23.511719h-30c-8.28125 0-14.996094 6.714844-14.996094 15zm0 0" fill="#009afb" data-original="#009afb" class=""></path><path xmlns="http://www.w3.org/2000/svg" d="m185 252c0 8.28125-6.714844 15-15 15s-15-6.71875-15-15c0-8.285156 6.714844-15 15-15s15 6.714844 15 15zm0 0" fill="#5a5a6b" data-original="#5a5a6b" class=""></path><path xmlns="http://www.w3.org/2000/svg" d="m165 0c-11.519531 0-22.03125 4.355469-30 11.496094-7.96875-7.140625-18.484375-11.496094-30-11.496094-24.8125 0-45 20.1875-45 45 0 8.285156 6.714844 15 15 15s15-6.714844 15-15c0-8.269531 6.726562-15 15-15 8.269531 0 15 6.730469 15 15v92c0 8.28125 6.714844 15 15 15 8.28125 0 15-6.71875 15-15v-92c0-8.269531 6.726562-15 15-15 8.269531 0 15 6.730469 15 15 0 8.285156 6.714844 15 15 15 8.28125 0 15-6.714844 15-15 0-24.8125-20.1875-45-45-45zm0 0" fill="#d2fafa" data-original="#d2fafa"></path></g></svg>
